<svg width="455" height="455" viewBox="0 0 455 455" xmlns="http://www.w3.org/2000/svg" fill="#a5a5a5"
>
<g clip-path="url(#clip0)">
<path d="M450.003 285.589L447.662 282.146L445.724 285.831C433.076 309.86 391.028 324.22 357.683 324.22C315.223 324.22 105.591 317.839 78.3 316.285C72.905 315.965 67.27 315.816 60.565 315.816C56.406 315.816 52.544 315.868 48.809 315.917C45.565 315.96 42.504 316.001 39.628 316.001C30.654 316.001 23.275 313.6 17.888 311.846C14.397 310.71 11.639 309.813 9.355 309.813C7.594 309.813 6.167 310.355 5.114 311.425C3.735 312.824 3.116 314.997 3.165 318.263C3.583 346.516 18.542 348.7 39.629 348.7C42.525 348.7 45.608 348.659 48.876 348.616C52.594 348.566 56.439 348.515 60.565 348.515C67.169 348.515 72.711 348.661 78.01 348.975C105.334 350.531 315.18 356.918 357.683 356.918C379.256 356.918 403.104 351.189 421.475 341.596C442.616 330.555 454.258 315.698 454.258 299.76C454.258 294.509 452.826 289.74 450.003 285.589Z"  fill="#595959"/>
<path d="M36.795 302.434C39.67 302.434 42.728 302.393 45.971 302.35C49.66 302.3 53.476 302.249 57.57 302.249C64.135 302.249 69.632 302.395 74.878 302.709C101.987 304.265 310.203 310.651 352.382 310.651C373.794 310.651 397.462 304.922 415.695 295.325C436.674 284.283 448.227 269.427 448.227 253.493C448.227 230.383 421.861 222.92 393.946 215.017C378.726 210.709 362.988 206.254 349.689 199.125C343.699 195.907 334.566 191.243 323.436 185.669C323.454 185.347 323.485 185.027 323.485 184.701C323.485 175.186 315.745 167.446 306.23 167.446C301.959 167.446 298.054 169.014 295.038 171.594C291.007 169.612 286.874 167.584 282.67 165.525C282.294 156.341 274.726 148.98 265.451 148.98C261.705 148.98 258.244 150.193 255.413 152.229C251.643 150.396 247.867 148.562 244.102 146.735C244.182 146.063 244.235 145.383 244.235 144.69C244.235 135.176 236.495 127.436 226.981 127.436C222.206 127.436 217.88 129.387 214.753 132.531C177.974 114.771 147.821 100.346 145.119 99.054C143.473 97.931 141.638 97.338 139.796 97.338C136.826 97.338 133.971 98.782 132.156 101.206L111.84 128.45C109.118 132.137 108.049 135.853 108.662 139.498C109.876 146.72 117.326 151.836 123.312 155.946C125.695 157.583 129.239 160.016 129.808 161.197C129.8 161.205 129.791 161.214 129.783 161.222C126.472 164.459 115.845 169.277 100.135 169.277C91.054 169.277 81.485 167.542 72.462 164.257C61.421 160.237 56.859 149.207 53.194 140.344C50.129 132.931 47.481 126.53 41.598 126.53C37.135 126.53 31.971 130.534 24.305 139.95C-1.752 173.07 -0.534 223.675 0.356 260.625C0.451 264.582 0.543 268.385 0.596 271.994C1.01 300.251 15.86 302.434 36.795 302.434ZM255.188 199.765C255.188 199.765 258.53 196.457 262.661 197.694C266.256 198.77 274.757 201.06 279.958 202.352C284.405 203.457 280.39 206.953 280.39 206.953L212.871 268.754C212.817 268.793 210.071 271.298 205.904 271.298C199.177 271.298 186.136 271.247 180.822 271.247C176.405 271.247 180.07 267.52 180.07 267.52C180.07 267.52 255.179 199.765 255.188 199.765ZM203.778 185.178C203.796 185.162 208.989 180.04 215.242 182.019C218.412 183.022 225.852 184.869 230.597 186.197C234.655 187.332 230.352 191.518 230.35 191.522L146.771 267.297C146.713 267.34 144.78 270.833 138.266 270.833C130.915 270.833 116.888 271.169 111.149 271.169C107.905 271.169 110.789 267.68 110.786 267.682L203.778 185.178Z" />
</g>
<defs>
<clipPath id="clip0">
<rect width="454.258" height="454.258" fill="white"/>
</clipPath>
</defs>
</svg>
