<svg xmlns="http://www.w3.org/2000/svg" width="455" height="455" fill="#a5a5a5"><g clip-path="url(#clip0)"><path fill="#595959" d="M450 285.6l-2.3-3.5-2 3.7c-12.6 24-54.7 38.4-88 38.4a13103.2 13103.2 0 01-297.1-8.4l-11.8.1-9.2.1c-9 0-16.3-2.4-21.7-4.2-3.5-1-6.3-2-8.5-2-1.8 0-3.2.6-4.3 1.6-1.4 1.4-2 3.6-2 6.9.5 28.2 15.4 30.4 36.5 30.4H49l11.7-.2a13115.4 13115.4 0 00297.1 8.4c21.6 0 45.4-5.7 63.8-15.3 21.1-11 32.8-25.9 32.8-41.8 0-5.3-1.5-10-4.3-14.2z"/><path d="M36.8 302.4H46l11.6-.2a12911.8 12911.8 0 00294.8 8.4c21.4 0 45-5.7 63.3-15.3 21-11 32.5-25.9 32.5-41.8 0-23.1-26.3-30.6-54.3-38.5-15.2-4.3-31-8.7-44.2-15.9-6-3.2-15.1-7.9-26.3-13.4v-1a17.3 17.3 0 00-28.4-13.1l-12.3-6a17.3 17.3 0 00-27.3-13.4l-11.3-5.5.1-2a17.3 17.3 0 00-29.4-12.2L145 99.1a9.4 9.4 0 00-5.3-1.8c-3 0-5.8 1.5-7.6 4l-20.4 27.1a14.3 14.3 0 00-3.1 11.1c1.2 7.2 8.6 12.3 14.6 16.4 2.4 1.7 6 4.1 6.5 5.3-3.3 3.3-14 8-29.7 8-9 0-18.6-1.7-27.6-5-11-4-15.6-15-19.3-23.9-3-7.4-5.7-13.8-11.6-13.8-4.5 0-9.6 4-17.3 13.4-26 33.2-24.8 83.8-24 120.7L.7 272c.4 28.3 15.3 30.4 36.2 30.4zm218.4-102.6s3.3-3.3 7.5-2.1c3.6 1 12 3.4 17.3 4.7 4.4 1 .4 4.6.4 4.6l-67.5 61.8s-2.8 2.5-7 2.5h-25c-4.5 0-.8-3.8-.8-3.8l75-67.7zm-51.4-14.6s5.2-5.2 11.4-3.2c3.2 1 10.7 2.9 15.4 4.2 4 1.1-.2 5.3-.3 5.3l-83.5 75.8s-2 3.5-8.5 3.5c-7.4 0-21.4.4-27.2.4-3.2 0-.3-3.5-.3-3.5l93-82.5z"/></g><defs><clipPath id="clip0"><path fill="#fff" d="M0 0h454.3v454.3H0z"/></clipPath></defs></svg>
