<?xml version="1.0" encoding="iso-8859-1"?>
<!-- Generator: Adobe Illustrator 19.0.0, SVG Export Plug-In . SVG Version: 6.00 Build 0)  -->
<svg version="1.1" id="Capa_1" xmlns="http://www.w3.org/2000/svg" xmlns:xlink="http://www.w3.org/1999/xlink" x="0px" y="0px"
	 viewBox="0 0 512 512" style="enable-background:new 0 0 512 512;" xml:space="preserve">
<g>
	<g>
		<path d="M508.578,303.317c-0.323-17.499-8.915-33.969-23.16-44.217c-3.36-2.418-8.047-1.654-10.465,1.707
			c-2.418,3.361-1.654,8.046,1.707,10.465c9.781,7.038,15.916,18.087,16.822,30.001c-8.999,3.317-16.669,9.709-21.574,17.923
			c-59.218,18.968-114.744,24.934-165.293,17.787l-42.856-9.287c-1.088-0.301-2.179-0.588-3.264-0.897
			c-2.891-0.823-5.583-1.622-8.132-2.404l-38.742-13.096c-3.558-1.149-7.38-2.329-11.604-3.552c-0.368-0.107-0.741-0.208-1.11-0.314
			l-42.229-9.735c-7.309-1.24-14.669-2.268-21.937-3.037c-1.68-0.177-3.378-0.331-5.074-0.485v-3.65
			c0-21.399-17.415-38.808-38.821-38.808h-47.96v-1.09c0-12.715,1.693-25.385,5.033-37.656l8.456-31.065
			c0.416-1.528,1.593-2.008,2.256-2.159c0.666-0.15,1.935-0.225,2.971,0.977l6.228,7.218c2.706,3.136,7.439,3.482,10.575,0.778
			c3.135-2.706,3.482-7.44,0.777-10.575l-6.228-7.218c-4.365-5.057-11.12-7.282-17.64-5.802c-6.515,1.479-11.651,6.4-13.406,12.845
			l-8.456,31.065c-3.69,13.555-5.56,27.549-5.56,41.595v48.968c-2.84,1.699-5.208,4.163-6.77,7.168L1.07,349.197
			c-0.001,0.002-0.002,0.004-0.003,0.006l-0.058,0.112c-0.02,0.038-0.033,0.08-0.053,0.118c-0.1,0.2-0.191,0.404-0.273,0.613
			c-0.028,0.071-0.053,0.143-0.079,0.216c-0.069,0.195-0.13,0.393-0.183,0.594c-0.021,0.077-0.042,0.153-0.06,0.231
			c-0.047,0.206-0.084,0.415-0.114,0.626c-0.01,0.071-0.024,0.141-0.032,0.213c-2.766,24.458,21.609,45.37,44.488,45.37h113.089
			c3.753,0,7.409-1.536,10.03-4.215c2.254-2.304,3.588-5.235,3.828-8.369l11.435,1.991c4.084,0.708,7.962-2.021,8.673-6.1
			c0.711-4.08-2.02-7.962-6.1-8.672l-12.433-2.165c-4.122-0.798-8.328,0.285-11.554,2.981c-2.894,2.418-4.648,5.843-4.938,9.554
			h-25.71c-3.578-20.991-21.892-37.026-43.894-37.026h-67.12l16.419-31.594c0.327-0.629,0.861-1.113,1.492-1.39
			c0.667-0.047,1.308-0.179,1.914-0.389c22.556-3.363,45.476-4.758,68.15-4.126c9.171,0.256,18.317,0.861,27.183,1.797
			c8.115,0.858,16.36,2.038,24.447,3.497c13.034,2.454,25.897,5.508,38.233,9.08c19.729,5.711,38.784,13.45,58.544,19.072
			c10.686,3.039,21.512,5.701,32.253,7.927c0.021,0.004,0.042,0.009,0.063,0.014c0.014,0.003,0.027,0.006,0.041,0.009
			c53.134,10.455,111.556,6.582,173.884-11.472l-13.243,26.89l-54.08,16.029c-3.76,1.115-7.654,1.679-11.573,1.679H372.23
			l-82.66-26.558c-10.964-3.522-22.872-0.695-31.079,7.378l-18.569,18.263l-23.062-4.016c-4.076-0.714-7.962,2.02-8.673,6.1
			c-0.711,4.08,2.02,7.962,6.1,8.672l26.859,4.677c1.832,0.319,3.703,0.48,5.56,0.48h124.324c0.017,0.003,0.033,0.003,0.05,0h12.656
			c5.363,0,10.691-0.773,15.834-2.297l57.155-16.941c0.047-0.013,0.094-0.027,0.14-0.041l25.446-7.542
			C499.792,365.293,512,348.947,512,330.72v-19.063C511.999,308.52,510.738,305.531,508.578,303.317z M87.13,360.269
			c13.699,0.001,25.247,9.369,28.575,22.031H44.702c-13.699,0-25.247-9.368-28.575-22.031H87.13z M116.673,293.117
			c-23.949-1.197-48.013-0.173-71.787,2.931v-29.335h47.962c13.138,0,23.825,10.683,23.825,23.812V293.117z M260.373,382.301
			l8.633-8.49c4.219-4.15,10.341-5.602,15.978-3.792l38.226,12.282H260.373z M497.004,330.721c0,11.634-7.794,22.069-18.954,25.377
			l-9.089,2.694l14.798-30.051c2.78-5.647,7.524-10.177,13.245-12.733V330.721z"/>
	</g>
</g>
<g>
	<g>
		<path d="M449.176,248.305l-37.706-3.687c-15.062-1.473-30.058-3.797-44.895-6.929c-24.006-12.721-47.374-27.089-69.561-42.738
			l0.662-0.788c2.664-3.17,2.253-7.899-0.918-10.564c-3.169-2.664-7.899-2.253-10.563,0.917l-1.373,1.634
			c-4.833-3.584-9.625-7.234-14.363-10.958l0.847-1.008c2.664-3.17,2.253-7.899-0.918-10.564c-3.17-2.664-7.898-2.252-10.563,0.917
			l-1.047,1.247c-4.891-4.032-9.729-8.132-14.5-12.308l0.95-1.131c2.664-3.17,2.253-7.899-0.918-10.564
			c-3.169-2.664-7.899-2.252-10.563,0.917l-0.643,0.765c-8.358-7.664-16.514-15.54-24.437-23.617
			c-0.157-0.161-0.321-0.314-0.492-0.459c-7.989-6.8-19.877-6.121-27.06,1.547c-4.553,4.857-8.85,11.475-12.775,19.668
			c-8.92,18.619-9.181,35.599-8.619,43.701c-16.534,10.792-37.427,13.585-56.602,6.862c-3.91-1.37-8.186,0.688-9.556,4.594
			c-1.372,3.908,0.685,8.187,4.593,9.557c29.735,10.427,62.85,2.297,84.365-20.711c4.672-4.996,12.292-6.052,18.147-2.534
			l-7.991,9.511c-2.664,3.17-2.253,7.899,0.918,10.564c3.099,2.604,7.971,2.166,10.563-0.917l9.471-11.272l14.692,8.944
			c0.582,0.354,1.17,0.699,1.752,1.05l-5.098,6.068c-2.664,3.171-2.253,7.899,0.918,10.564c3.099,2.604,7.971,2.166,10.563-0.917
			l6.8-8.093c5.383,2.983,10.833,5.851,16.345,8.6l-3.38,4.023c-2.664,3.17-2.253,7.899,0.918,10.564
			c3.099,2.604,7.971,2.166,10.563-0.917l5.891-7.012c28.274,12.852,57.969,22.675,88.333,29.203
			c0.45,0.137,0.905,0.238,1.362,0.288c15.44,3.267,31.048,5.689,46.725,7.222l37.706,3.687c0.248,0.024,0.494,0.036,0.738,0.036
			c3.812,0,7.075-2.895,7.454-6.769C456.31,252.374,453.297,248.708,449.176,248.305z M210.428,170.454l-1.889-1.15
			c-10.572-6.435-24.005-5.462-33.55,1.96c0.745-6.81,2.612-15.286,6.874-24.182c3.263-6.809,6.692-12.156,10.194-15.894
			c1.645-1.754,4.321-1.97,6.199-0.542c8.168,8.315,16.575,16.425,25.193,24.311L210.428,170.454z M239.844,188.323
			c-1.245-0.739-2.488-1.479-3.724-2.23l-12.732-7.751l11.243-13.382c4.773,4.173,9.612,8.272,14.502,12.305L239.844,188.323z
			 M269.536,204.347c-5.545-2.706-11.029-5.534-16.443-8.483l7.716-9.185c4.737,3.727,9.521,7.385,14.349,10.974L269.536,204.347z
			 M283.618,210.898l3.717-4.424c7.083,5.017,14.285,9.903,21.592,14.652C300.379,217.994,291.938,214.58,283.618,210.898z"/>
	</g>
</g>
<g>
</g>
<g>
</g>
<g>
</g>
<g>
</g>
<g>
</g>
<g>
</g>
<g>
</g>
<g>
</g>
<g>
</g>
<g>
</g>
<g>
</g>
<g>
</g>
<g>
</g>
<g>
</g>
<g>
</g>
</svg>
